<svg width="146" height="104" viewBox="0 0 146 104" fill="none" xmlns="http://www.w3.org/2000/svg">
<g clip-path="url(#clip0_7788_1268)">
<path d="M79.211 13.4125C78.718 13.6918 78.2593 14.0288 77.8447 14.4165L75.5114 16.598L86.7273 26.8579C88.2971 28.294 89.4897 30.1216 90.1759 32.1435C90.8621 34.1654 91.0303 36.3465 90.6623 38.451L84.2369 75.189C83.1747 81.2615 77.9688 85.6691 71.8582 85.6691C71.1269 85.6691 70.3891 85.6038 69.6657 85.4752L67.6172 85.1111L68.072 87.7109C68.6867 91.2268 71.7193 93.7003 75.1418 93.7003C75.556 93.7003 113.56 86.983 113.56 86.983C117.469 86.2881 120.079 82.5298 119.39 78.5886L110.422 27.3173C110.215 26.1292 109.716 25.0122 108.971 24.0677C108.227 23.1231 107.26 22.3809 106.159 21.9084L85.5472 13.0625C85.2269 12.9254 84.8972 12.812 84.5607 12.723L83.6674 7.08725L83.0572 3.23731C82.8222 1.75527 81.4397 0.746231 79.9704 0.982821C78.5003 1.21959 77.4993 2.61287 77.7342 4.09491L78.3296 7.85136L79.211 13.4125ZM55.4942 43.9165L56.9677 35.492C56.9386 35.4953 56.9105 35.4976 56.8812 35.5011C54.944 35.7328 53.7268 37.2231 53.2338 38.5407C52.7051 39.9532 52.8507 41.3633 53.6136 42.2209C54.0936 42.7604 54.7079 43.3158 55.4942 43.9165ZM58.0965 49.9028L56.1598 60.976C58.7901 60.6903 60.6403 58.7643 61.3414 56.7728C61.6866 55.7924 62.5259 52.4298 58.8327 50.326C58.5866 50.186 58.3413 50.045 58.0965 49.9028Z" fill="#F0F1F1"/>
<path d="M60.34 14.13C59.9326 14.2171 59.5335 14.3397 59.1471 14.4965L38.418 22.9422C37.2877 23.4027 36.2922 24.1454 35.5251 25.1006C34.758 26.0557 34.2444 27.1919 34.0327 28.4022L27.6103 65.1228C26.921 69.064 29.5314 72.8223 33.4405 73.5172L70.6016 80.1233C71.0165 80.1971 71.4369 80.2343 71.8582 80.2345C75.2803 80.2345 78.3133 77.7608 78.928 74.2453L85.3534 37.5071C85.5643 36.3013 85.4687 35.0613 85.0755 33.9028C84.6822 32.7443 84.0043 31.7052 83.1048 30.8824L66.6697 15.8481C66.353 15.5589 66.0114 15.2988 65.6489 15.0707L66.6251 9.48896L67.5611 4.1376C67.8195 2.65973 66.8408 1.25033 65.3749 0.989827C63.9095 0.728418 62.511 1.7159 62.2526 3.19396L61.3166 8.54604L60.34 14.13ZM61.5587 30.1076L61.1876 32.2297C63.626 32.9514 64.9878 34.4012 65.6394 35.0952C65.7305 35.1923 65.8248 35.2927 65.8699 35.3347C66.5985 36.0139 66.6431 37.16 65.9695 37.8946C65.2958 38.6292 64.1591 38.6741 63.4303 37.995C63.2973 37.8711 63.1672 37.7325 63.0296 37.5859C62.5462 37.0711 61.8198 36.2992 60.5578 35.8305L58.7626 46.095C59.3706 46.4618 59.9834 46.8206 60.6006 47.1715C64.6155 49.4584 66.2358 53.7029 64.7282 57.9847C63.9877 60.0877 62.5547 61.9065 60.6928 63.1058C59.1286 64.1134 57.3662 64.6308 55.5196 64.6366L55.0653 67.2333C54.9117 68.1122 54.1534 68.7305 53.2979 68.7305C53.194 68.7305 53.0893 68.7213 52.9838 68.7028C52.0065 68.5291 51.3539 67.5896 51.5262 66.6043L51.9565 64.1438C49.6111 63.6168 47.9218 62.8248 45.5929 60.6205C44.8693 59.9357 44.8334 58.7894 45.5128 58.0599C46.192 57.3303 47.329 57.2943 48.0526 57.9791C49.7638 59.5986 50.8308 60.1683 52.5809 60.575L54.8042 47.8631C53.0778 46.701 51.8663 45.6824 50.9388 44.64C49.2765 42.7717 48.8677 39.9444 49.8718 37.2615C50.9763 34.3099 53.5002 32.2567 56.4584 31.9031C56.8414 31.8576 57.2261 31.8277 57.6115 31.8134L58.0199 29.4785C58.192 28.4932 59.1241 27.8354 60.1014 28.0089C61.0784 28.1827 61.731 29.1223 61.5587 30.1076Z" fill="#8EF7FB"/>
<path d="M2 7C2.82843 7 3.5 6.32843 3.5 5.5C3.5 4.67157 2.82843 4 2 4C1.17157 4 0.5 4.67157 0.5 5.5C0.5 6.32843 1.17157 7 2 7Z" fill="white"/>
</g>
<defs>
<clipPath id="clip0_7788_1268">
<rect width="145" height="104" fill="white" transform="translate(0.5)"/>
</clipPath>
</defs>
</svg>
