<?xml version="1.0" encoding="UTF-8" standalone="no" ?>
<!DOCTYPE svg PUBLIC "-//W3C//DTD SVG 1.1//EN" "http://www.w3.org/Graphics/SVG/1.1/DTD/svg11.dtd">
<svg xmlns="http://www.w3.org/2000/svg" xmlns:xlink="http://www.w3.org/1999/xlink" version="1.1" width="512" height="512" viewBox="0 0 512 512" xml:space="preserve">
<desc>Created with Fabric.js 5.2.4</desc>
<defs>
</defs>
<rect x="0" y="0" width="100%" height="100%" fill="transparent"></rect>
<g transform="matrix(1 0 0 1 256 256)" id="5f4b804b-7f1c-4cfc-8572-98822d8c8f0b"  >
<rect style="stroke: none; stroke-width: 1; stroke-dasharray: none; stroke-linecap: butt; stroke-dashoffset: 0; stroke-linejoin: miter; stroke-miterlimit: 4; fill: rgb(255,255,255); fill-rule: nonzero; opacity: 1; visibility: hidden;" vector-effect="non-scaling-stroke"  x="-256" y="-256" rx="0" ry="0" width="512" height="512" />
</g>
<g transform="matrix(Infinity NaN NaN Infinity 0 0)" id="b5d39fa2-b47f-47f4-8bf5-fef964fa8a85"  >
</g>
<g transform="matrix(0.82 0 0 0.82 170.37 238.33)"  >
<g style="" vector-effect="non-scaling-stroke"   >
		<g transform="matrix(1 0 0 1 264.18 208.71)"  >
<path style="stroke: none; stroke-width: 1; stroke-dasharray: none; stroke-linecap: butt; stroke-dashoffset: 0; stroke-linejoin: miter; stroke-miterlimit: 4; fill: rgb(142,247,251); fill-rule: nonzero; opacity: 1;" vector-effect="non-scaling-stroke"  transform=" translate(-1117.45, -697.8)" d="M 1023 600 C 1159.65 895.074 1187.41 792.701 1204.07 673.44 L 1211.89 679.323 C 1205.47 728.108 1205.94 720.3 1201.1 741.827 C 1196.25 763.353 1179.13 819.004 1131.39 784.672 C 1096.02 751.586 1058.85 681.746 1023 600 Z" stroke-linecap="round" />
</g>
		<g transform="matrix(0 1 -1 0 80.75 -25.08)"  >
<rect style="stroke: none; stroke-width: 1; stroke-dasharray: none; stroke-linecap: butt; stroke-dashoffset: 0; stroke-linejoin: miter; stroke-miterlimit: 4; fill: none; fill-rule: nonzero; opacity: 1;" vector-effect="non-scaling-stroke"  x="-317.016" y="-317.016" rx="317.016" ry="317.016" width="634.032" height="634.032" />
</g>
		<g transform="matrix(1 0 0 1 -148.78 3.89)"  >
<rect style="stroke: none; stroke-width: 1; stroke-dasharray: none; stroke-linecap: butt; stroke-dashoffset: 0; stroke-linejoin: miter; stroke-miterlimit: 4; fill: rgb(206,246,248); fill-rule: nonzero; opacity: 1;" vector-effect="non-scaling-stroke"  x="-338.1965" y="-338.1965" rx="338.197" ry="338.197" width="676.393" height="676.393" />
</g>
		<g transform="matrix(1 0 0 1 384.67 -172.16)"  >
<path style="stroke: none; stroke-width: 1; stroke-dasharray: none; stroke-linecap: butt; stroke-dashoffset: 0; stroke-linejoin: miter; stroke-miterlimit: 4; fill: rgb(142,247,251); fill-rule: nonzero; opacity: 1;" vector-effect="non-scaling-stroke"  transform=" translate(-1237.93, -316.93)" d="M 1140.13 411.379 C 1435.21 274.732 1332.84 246.965 1213.57 230.306 L 1219.46 222.485 C 1268.24 228.908 1260.43 228.438 1281.96 233.283 C 1303.49 238.128 1359.14 255.252 1324.81 302.985 C 1291.72 338.355 1221.88 375.525 1140.13 411.379 Z" stroke-linecap="round" />
</g>
		<g transform="matrix(1 0 0 1 -289.04 -242.31)"  >
<path style="stroke: none; stroke-width: 1; stroke-dasharray: none; stroke-linecap: butt; stroke-dashoffset: 0; stroke-linejoin: miter; stroke-miterlimit: 4; fill: rgb(142,247,251); fill-rule: nonzero; opacity: 1;" vector-effect="non-scaling-stroke"  transform=" translate(-564.22, -246.79)" d="M 617.07 282.023 L 515.944 219.312 C 514.698 218.54 509.922 215.021 511.791 212.321 C 513.286 210.162 518.09 213.037 520.304 214.744 L 617.07 282.023 Z" stroke-linecap="round" />
</g>
		<g transform="matrix(1 0 0 1 -182.57 241.85)"  >
<path style="stroke: none; stroke-width: 1; stroke-dasharray: none; stroke-linecap: butt; stroke-dashoffset: 0; stroke-linejoin: miter; stroke-miterlimit: 4; fill: rgb(142,247,251); fill-rule: nonzero; opacity: 1;" vector-effect="non-scaling-stroke"  transform=" translate(-670.69, -730.94)" d="M 586.337 754.007 C 580.991 747.938 578.008 740.655 576.842 733.992 C 579.116 742.411 582.359 748.977 586.337 754.007 C 602.036 771.829 638.117 779.173 708.424 729.562 C 743.255 706.581 755.285 697.191 756.946 695.368 C 760.914 693.246 767.661 691.271 762.899 700.352 C 746.24 713.111 708.859 736.832 687.105 746.807 C 661.556 758.523 610.453 784.502 586.337 754.007 Z" stroke-linecap="round" />
</g>
		<g transform="matrix(1 0 0 1 184.11 49.67)"  >
<path style="stroke: none; stroke-width: 1; stroke-dasharray: none; stroke-linecap: butt; stroke-dashoffset: 0; stroke-linejoin: miter; stroke-miterlimit: 4; fill: rgb(2,0,12); fill-rule: nonzero; opacity: 1;" vector-effect="non-scaling-stroke"  transform=" translate(-1037.37, -538.76)" d="M 1133.07 812.252 C 1084.85 755.655 983.315 633.931 958.23 628.671 C 939.735 617.263 870.37 596.409 861.049 589.441 C 844.045 578.274 810.465 559.581 786.986 529.014 C 763.508 498.448 759.345 493.206 760.199 494.405 C 758.33 492.744 754.814 488.356 755.7 484.092 C 756.586 479.828 757.915 474.702 758.469 472.671 C 758.1 470.895 759.092 467.341 766.013 467.341 C 771.069 467.341 785.461 468.594 798.388 470.354 L 799.515 467.341 L 737.288 417.366 C 736.273 417.551 734.298 415.691 734.519 406.776 C 734.796 395.632 742.549 385.803 755.7 388.918 C 763.905 390.861 779.745 397.646 791.169 402.87 L 795.085 399.785 L 750.439 356.593 C 748.04 352.948 744.681 343.207 750.439 333.406 C 757.638 321.154 772.174 318.385 781.38 322.538 C 788.744 325.861 804.937 331.168 812.112 333.406 C 815.521 336.257 819.204 340.018 821.942 344.054 L 851.912 333.406 L 821.872 299.057 C 807.452 283.506 789.049 255.644 830.801 268.601 C 860.924 285.823 885.044 308.886 889.151 311.378 L 943.002 342.819 L 976.365 383.519 L 992.839 406.776 L 1008.41 399.785 L 1020.53 388.918 C 1017.9 384.903 1012.5 375.421 1011.94 369.606 C 1001.51 358.047 983.785 326.913 996.3 294.851 C 998.376 287.514 1005.52 276.772 1017.48 292.498 C 1029.44 308.224 1051.21 332.598 1060.6 342.819 L 1072.44 373.967 L 1068.08 414.252 C 1065.36 428.689 1060.34 449.677 1056.44 468.68 C 1053.93 480.893 1055.26 493.545 1059.93 505.105 C 1071.69 534.196 1089.55 574.421 1108.36 589.441 C 1131.45 607.881 1188.77 668.649 1214.54 696.728 L 1340.24 812.252 L 1133.07 812.252 Z" stroke-linecap="round" />
</g>
		<g transform="matrix(1 0 0 1 52.09 -65.02)"  >
<circle style="stroke: none; stroke-width: 1; stroke-dasharray: none; stroke-linecap: butt; stroke-dashoffset: 0; stroke-linejoin: miter; stroke-miterlimit: 4; fill: rgb(142,247,251); fill-rule: nonzero; opacity: 1;" vector-effect="non-scaling-stroke"  cx="0" cy="0" r="117.322" />
</g>
		<g transform="matrix(1 0 0 1 52.09 -64.89)"  >
<linearGradient id="SVGID_paint0_linear_7788_502_3" gradientUnits="userSpaceOnUse" gradientTransform="matrix(1 0 0 1 0 0)"  x1="811.064" y1="338.564" x2="976.464" y2="528.486">
<stop offset="0%" style="stop-color:rgb(245,245,245);stop-opacity: 1"/>
<stop offset="100%" style="stop-color:rgb(188,228,224);stop-opacity: 1"/>
</linearGradient>
<path style="stroke: none; stroke-width: 1; stroke-dasharray: none; stroke-linecap: butt; stroke-dashoffset: 0; stroke-linejoin: miter; stroke-miterlimit: 4; fill: url(#SVGID_paint0_linear_7788_502_3); fill-rule: nonzero; opacity: 1;" vector-effect="non-scaling-stroke"  transform=" translate(-905.35, -424.2)" d="M 905.348 298.36 C 974.776 298.36 1031.06 354.7 1031.06 424.2 C 1031.06 493.699 974.776 550.041 905.348 550.041 C 835.919 550.041 779.637 493.699 779.637 424.2 C 779.637 354.7 835.919 298.36 905.348 298.36 Z M 905.348 308.298 C 841.408 308.299 789.575 360.189 789.575 424.2 C 789.575 488.211 841.408 540.102 905.348 540.102 C 969.287 540.102 1021.12 488.211 1021.12 424.2 C 1021.12 360.189 969.287 308.298 905.348 308.298 Z" stroke-linecap="round" />
</g>
		<g transform="matrix(1 0 0 1 196.82 -40.04)"  >
<linearGradient id="SVGID_paint1_linear_7788_502_4" gradientUnits="userSpaceOnUse" gradientTransform="matrix(1 0 0 1 0 0)"  x1="993.897" y1="478.805" x2="1034.27" y2="414.169">
<stop offset="0%" style="stop-color:rgb(36,46,74);stop-opacity: 0"/>
<stop offset="100%" style="stop-color:rgb(12,13,30);stop-opacity: 1"/>
</linearGradient>
<path style="stroke: none; stroke-width: 1; stroke-dasharray: none; stroke-linecap: butt; stroke-dashoffset: 0; stroke-linejoin: miter; stroke-miterlimit: 4; fill: url(#SVGID_paint1_linear_7788_502_4); fill-rule: nonzero; opacity: 1;" vector-effect="non-scaling-stroke"  transform=" translate(-1050.08, -449.05)" d="M 1065.79 427.818 L 1053.24 470.284 C 1050.29 476.27 1050.97 485.71 1051.69 489.682 L 1039.62 482.408 L 1034.37 408.421 L 1065.79 427.818 Z" stroke-linecap="round" />
</g>
		<g transform="matrix(1 0 0 1 -70.06 -145.07)"  >
<linearGradient id="SVGID_paint2_linear_7788_502_5" gradientUnits="userSpaceOnUse" gradientTransform="matrix(1 0 0 1 0 0)"  x1="728.844" y1="390.078" x2="972.143" y2="410.912">
<stop offset="0%" style="stop-color:rgb(10,12,27);stop-opacity: 1"/>
<stop offset="100%" style="stop-color:rgb(60,62,216);stop-opacity: 1"/>
</linearGradient>
<path style="stroke: none; stroke-width: 1; stroke-dasharray: none; stroke-linecap: butt; stroke-dashoffset: 0; stroke-linejoin: miter; stroke-miterlimit: 4; fill: url(#SVGID_paint2_linear_7788_502_5); fill-rule: nonzero; opacity: 1;" vector-effect="non-scaling-stroke"  transform=" translate(-783.2, -344.02)" d="M 808.431 333.491 L 778.391 321.586 C 765.101 316.319 752.296 321.586 746.343 333.491 C 741.581 343.016 745.697 351.073 748.351 353.91 C 751.373 355.249 765.295 360.015 796.803 368.377 C 836.451 370.426 821.075 345.974 808.431 333.491 Z" stroke-linecap="round" />
</g>
		<g transform="matrix(1 0 0 1 -83.81 -77.42)"  >
<linearGradient id="SVGID_paint3_linear_7788_502_6" gradientUnits="userSpaceOnUse" gradientTransform="matrix(1 0 0 1 0 0)"  x1="728.844" y1="390.078" x2="972.143" y2="410.912">
<stop offset="0%" style="stop-color:rgb(10,12,27);stop-opacity: 1"/>
<stop offset="100%" style="stop-color:rgb(60,62,216);stop-opacity: 1"/>
</linearGradient>
<path style="stroke: none; stroke-width: 1; stroke-dasharray: none; stroke-linecap: butt; stroke-dashoffset: 0; stroke-linejoin: miter; stroke-miterlimit: 4; fill: url(#SVGID_paint3_linear_7788_502_6); fill-rule: nonzero; opacity: 1;" vector-effect="non-scaling-stroke"  transform=" translate(-769.46, -411.67)" d="M 792.857 403.539 L 753.473 389.627 C 745.859 386.937 740.391 385.681 731.946 396.41 C 725.19 404.993 731.023 412.076 734.784 414.545 C 738.637 416.437 753.667 423.28 782.959 435.518 C 826.76 436.847 807.808 414.753 792.857 403.539 Z" stroke-linecap="round" />
</g>
		<g transform="matrix(1 0 0 1 -59.73 -5)"  >
<linearGradient id="SVGID_paint4_linear_7788_502_7" gradientUnits="userSpaceOnUse" gradientTransform="matrix(1 0 0 1 0 0)"  x1="728.844" y1="390.078" x2="972.143" y2="410.912">
<stop offset="0%" style="stop-color:rgb(10,12,27);stop-opacity: 1"/>
<stop offset="100%" style="stop-color:rgb(60,62,216);stop-opacity: 1"/>
</linearGradient>
<path style="stroke: none; stroke-width: 1; stroke-dasharray: none; stroke-linecap: butt; stroke-dashoffset: 0; stroke-linejoin: miter; stroke-miterlimit: 4; fill: url(#SVGID_paint4_linear_7788_502_7); fill-rule: nonzero; opacity: 1;" vector-effect="non-scaling-stroke"  transform=" translate(-793.53, -484.09)" d="M 813 472.965 L 767.316 466.112 C 758.456 464.783 754.396 470.127 753.473 472.965 C 751.304 476.448 749.167 484.953 757.972 491.099 C 766.776 497.246 788.681 500.628 798.533 501.551 C 804.209 502.382 826.843 503.835 831.135 497.052 C 844.314 484.372 824.536 475.71 813 472.965 Z" stroke-linecap="round" />
</g>
		<g transform="matrix(1 0 0 1 -70.06 -145.07)"  >
<path style="stroke: rgb(0,0,0); stroke-width: 0.138435; stroke-dasharray: none; stroke-linecap: butt; stroke-dashoffset: 0; stroke-linejoin: miter; stroke-miterlimit: 4; fill: none; fill-rule: nonzero; opacity: 1;" vector-effect="non-scaling-stroke"  transform=" translate(-783.2, -344.02)" d="M 808.431 333.491 L 778.391 321.586 C 765.101 316.319 752.296 321.586 746.343 333.491 C 741.581 343.016 745.697 351.073 748.351 353.91 C 751.373 355.249 765.295 360.015 796.803 368.377 C 836.451 370.426 821.075 345.974 808.431 333.491 Z" stroke-linecap="round" />
</g>
		<g transform="matrix(1 0 0 1 -83.81 -77.42)"  >
<path style="stroke: rgb(0,0,0); stroke-width: 0.138435; stroke-dasharray: none; stroke-linecap: butt; stroke-dashoffset: 0; stroke-linejoin: miter; stroke-miterlimit: 4; fill: none; fill-rule: nonzero; opacity: 1;" vector-effect="non-scaling-stroke"  transform=" translate(-769.46, -411.67)" d="M 792.857 403.539 L 753.473 389.627 C 745.859 386.937 740.391 385.681 731.946 396.41 C 725.19 404.993 731.023 412.076 734.784 414.545 C 738.637 416.437 753.667 423.28 782.959 435.518 C 826.76 436.847 807.808 414.753 792.857 403.539 Z" stroke-linecap="round" />
</g>
		<g transform="matrix(1 0 0 1 -59.73 -5)"  >
<path style="stroke: rgb(0,0,0); stroke-width: 0.138435; stroke-dasharray: none; stroke-linecap: butt; stroke-dashoffset: 0; stroke-linejoin: miter; stroke-miterlimit: 4; fill: none; fill-rule: nonzero; opacity: 1;" vector-effect="non-scaling-stroke"  transform=" translate(-793.53, -484.09)" d="M 813 472.965 L 767.316 466.112 C 758.456 464.783 754.396 470.127 753.473 472.965 C 751.304 476.448 749.167 484.953 757.972 491.099 C 766.776 497.246 788.681 500.628 798.533 501.551 C 804.209 502.382 826.843 503.835 831.135 497.052 C 844.314 484.372 824.536 475.71 813 472.965 Z" stroke-linecap="round" />
</g>
		<g transform="matrix(1 0 0 1 53.1 -69.78)" clip-path="url(#CLIPPATH_8)"  >
<clipPath id="CLIPPATH_8" >
	<rect transform="matrix(0.89 -0.45 0.45 0.89 -0.09 0.82)" id="clip0_7788_502" x="-54.703" y="-14.6417" rx="0" ry="0" width="109.406" height="29.2834" />
</clipPath>
<path style="stroke: none; stroke-width: 1; stroke-dasharray: none; stroke-linecap: butt; stroke-dashoffset: 0; stroke-linejoin: miter; stroke-miterlimit: 4; fill: rgb(255,255,255); fill-rule: evenodd; opacity: 1;" vector-effect="non-scaling-stroke"  transform=" translate(-906.37, -419.31)" d="M 943.345 384.785 L 924.38 412.434 L 935.05 402.227 L 934.356 406.591 L 923.292 416.933 L 927.532 395.003 L 912.996 413.864 L 908.858 419.232 L 913.459 416.223 L 919.237 412.445 L 916.214 431.44 L 934.093 408.242 L 932.028 421.222 L 953.782 392.997 L 939.106 406.715 L 943.345 384.785 Z M 907.687 421.524 L 907.988 423.057 C 908.309 424.691 907.691 425.904 906.134 426.699 C 904.553 427.505 903.603 427.092 903.282 425.458 L 900.803 412.837 L 894.61 415.997 L 897.009 428.209 C 897.485 430.634 898.35 432.195 899.602 432.89 C 900.855 433.585 902.354 433.487 904.1 432.596 C 905.539 431.862 906.587 430.919 907.243 429.768 C 907.899 428.616 908.286 427.412 908.402 426.154 L 908.579 426.064 L 909.301 429.739 L 915.493 426.58 L 913.725 417.575 L 907.687 421.524 Z M 907.239 419.245 L 912.669 412.2 L 911.702 407.277 L 905.509 410.436 L 907.239 419.245 Z M 876.027 425.477 L 882.22 422.317 L 882.942 425.992 L 883.119 425.902 C 883.235 424.645 883.622 423.44 884.278 422.289 C 884.934 421.137 885.982 420.194 887.421 419.46 C 889.167 418.569 890.666 418.472 891.918 419.167 C 893.171 419.862 894.035 421.422 894.512 423.847 L 896.911 436.06 L 890.718 439.219 L 888.239 426.598 C 887.918 424.965 886.967 424.551 885.387 425.358 C 883.83 426.152 883.212 427.366 883.532 428.999 L 886.012 441.62 L 879.819 444.779 L 876.027 425.477 Z M 862.056 453.841 L 860.85 447.513 C 860.864 447.506 860.917 447.48 861.002 447.437 L 861.002 447.436 C 862.327 446.767 871.654 442.053 871.609 441.821 C 871.56 441.573 871.418 441.51 871.182 441.63 L 865.242 444.293 C 863.595 445.024 862.254 445.136 861.22 444.629 C 860.205 444.085 859.515 442.885 859.151 441.029 C 858.747 438.975 858.948 437.157 859.754 435.576 C 860.554 433.969 861.945 432.661 863.927 431.65 L 874.224 426.396 L 875.16 432.862 C 875.146 432.869 875.095 432.895 875.011 432.937 L 875.009 432.938 L 875.009 432.939 C 873.703 433.598 864.626 438.184 864.672 438.417 C 864.687 438.491 864.727 438.565 864.794 438.64 C 864.879 438.678 864.981 438.667 865.099 438.607 L 871.039 435.945 C 872.686 435.213 874.017 435.119 875.032 435.663 C 876.066 436.17 876.766 437.352 877.13 439.208 C 877.534 441.262 877.335 443.092 876.535 444.699 C 875.729 446.28 874.336 447.577 872.354 448.587 L 862.056 453.841 Z" stroke-linecap="round" />
</g>
</g>
</g>
</svg>