<svg width="122" height="122" viewBox="0 0 122 122" fill="none" xmlns="http://www.w3.org/2000/svg">
<circle cx="61" cy="61.4557" r="59.5" stroke="#3AF0F7" stroke-width="2"/>
<g clip-path="url(#clip0_4_128)">
<path d="M55.9114 79.7137C58.0117 77.7398 58.3351 74.648 56.6338 72.808C54.9325 70.968 51.8506 71.0765 49.7503 73.0504C47.6501 75.0243 47.3266 78.116 49.028 79.956C50.7293 81.796 53.8111 81.6875 55.9114 79.7137Z" fill="#F0F1F1"/>
<path d="M83.701 79.7158C85.8013 77.742 86.1249 74.6502 84.4238 72.8101C82.7221 70.9701 79.6407 71.0787 77.5404 73.0525C75.4401 75.0264 75.1165 78.1181 76.8176 79.9581C78.5193 81.7982 81.6012 81.6897 83.701 79.7158Z" fill="#F0F1F1"/>
<path d="M33.8735 55.5555C33.8735 54.3336 32.8909 53.343 31.6789 53.343C30.4669 53.343 29.4843 54.3336 29.4843 55.5555C29.4843 56.7775 30.4669 57.7681 31.6789 57.7681C32.8909 57.7681 33.8735 56.7775 33.8735 55.5555Z" fill="#F0F1F1"/>
<path d="M73.3211 75.9195C74.1014 72.0322 77.7438 68.943 81.6588 68.943C85.4289 68.943 88.1456 71.808 88.0711 75.4919C92.1483 75.5995 93.2829 70.1869 93.2829 70.1869C93.6262 68.6734 94.139 65.723 94.5684 62.8269C94.7093 61.9327 94.6007 61.0168 94.2558 60.1809C93.1902 57.6727 91.9026 55.2666 90.4077 52.9918C88.994 50.8654 86.6228 49.6059 83.9159 49.5606C82.3015 49.5346 80.7166 49.5191 79.5201 49.5191L79.5102 49.5087C79.3555 46.9068 77.474 44.9139 74.833 44.6754C73.1143 44.5212 66.3075 44.4085 63.0404 44.4085C61.7423 44.4085 59.8799 44.4266 57.9956 44.4577V44.45H35.3259C35.0375 44.4498 34.752 44.5069 34.4856 44.6181C34.2191 44.7293 33.9771 44.8923 33.7732 45.0978C33.5693 45.3034 33.4076 45.5474 33.2973 45.816C33.1871 46.0846 33.1304 46.3725 33.1306 46.6632V46.6735C33.1306 47.2578 33.3608 47.8181 33.7705 48.2312C34.1803 48.6443 34.7361 48.8764 35.3156 48.8764H39.8822C40.4321 48.9173 40.9463 49.1662 41.3217 49.5733C41.6971 49.9804 41.906 50.5156 41.9065 51.0714V51.0831C41.9073 51.3741 41.8513 51.6624 41.7415 51.9315C41.6317 52.2006 41.4704 52.4452 41.2667 52.6514C41.063 52.8575 40.821 53.0212 40.5546 53.133C40.2881 53.2447 40.0024 53.3025 39.7138 53.3028H37.372C36.7901 53.3028 36.2321 53.5358 35.8206 53.9507C35.4092 54.3655 35.178 54.9281 35.178 55.5147C35.1779 55.8053 35.2345 56.0931 35.3447 56.3616C35.4548 56.6301 35.6165 56.8741 35.8202 57.0796C36.0239 57.2851 36.2659 57.4482 36.5321 57.5595C36.7984 57.6707 37.0838 57.7279 37.372 57.7279H39.7138C40.296 57.7279 40.8544 57.9611 41.2661 58.3762C41.6778 58.7912 41.9091 59.3542 41.9091 59.9412C41.9091 60.5281 41.6778 61.0911 41.2661 61.5061C40.8544 61.9212 40.296 62.1543 39.7138 62.1543H30.9533C30.3713 62.1543 29.8132 62.3873 29.4015 62.8021C28.9899 63.2169 28.7584 63.7795 28.7581 64.3663C28.7581 64.9532 28.9894 65.5162 29.401 65.9312C29.8127 66.3463 30.3711 66.5794 30.9533 66.5794H39.7138C40.296 66.5794 40.8544 66.8126 41.2661 67.2277C41.6778 67.6428 41.9091 68.2057 41.9091 68.7927C41.9084 69.3792 41.6768 69.9415 41.2652 70.356C40.8536 70.7705 40.2956 71.0033 39.7138 71.0033H37.0044C36.4225 71.0033 35.8645 71.2363 35.453 71.6511C35.0416 72.0659 34.8104 72.6285 34.8104 73.2152C34.8104 73.802 35.0416 74.3647 35.453 74.7797C35.8644 75.1947 36.4224 75.428 37.0044 75.4284L45.6493 75.4219L46.3677 73.6169C47.8393 70.8802 50.7672 68.9417 53.8673 68.9417C57.7836 68.9417 60.5649 72.0334 60.2591 75.9234H73.32M51.5474 54.333H48.6016C48.5988 54.3332 48.5961 54.3343 48.594 54.3362C48.592 54.3381 48.5905 54.3406 48.59 54.3433L48.3188 56.287C48.3184 56.2886 48.3183 56.2902 48.3186 56.2917C48.319 56.2933 48.3197 56.2948 48.3207 56.2961C48.3217 56.2973 48.323 56.2983 48.3244 56.299C48.3259 56.2997 48.3275 56.3 48.3291 56.3H50.5217C50.6294 56.2969 50.7363 56.3181 50.8348 56.3619C50.9333 56.4058 51.0208 56.4713 51.091 56.5536C51.1612 56.6359 51.2123 56.733 51.2406 56.8377C51.2688 56.9425 51.2735 57.0522 51.2544 57.1591C51.2168 57.3938 51.0992 57.6081 50.9218 57.7649C50.7445 57.9217 50.5185 58.0113 50.2827 58.0182H48.0874C48.0848 58.0181 48.0821 58.019 48.08 58.0206C48.0779 58.0223 48.0764 58.0246 48.0759 58.0272L47.6826 60.8508C47.645 61.0856 47.5274 61.2998 47.35 61.4566C47.1727 61.6134 46.9467 61.703 46.7109 61.7099C46.6033 61.713 46.4964 61.6919 46.3979 61.648C46.2995 61.6041 46.212 61.5385 46.1419 61.4562C46.0718 61.3739 46.0208 61.2767 45.9928 61.172C45.9647 61.0673 45.9602 60.9575 45.9796 60.8508L47 53.527C47.0405 53.279 47.1652 53.053 47.3528 52.8875C47.5404 52.722 47.7791 52.6274 48.0283 52.6199H51.7852C51.8928 52.6168 51.9997 52.6379 52.0981 52.6818C52.1966 52.7257 52.284 52.7912 52.3541 52.8736C52.4242 52.9559 52.4752 53.053 52.5033 53.1578C52.5314 53.2625 52.5359 53.3723 52.5165 53.479C52.4784 53.7126 52.3609 53.9256 52.1841 54.0814C52.0072 54.2373 51.7821 54.3262 51.5474 54.333ZM59.421 53.203C59.7271 53.4768 59.9424 53.8386 60.0379 54.2397C60.1447 54.694 60.1622 55.165 60.0894 55.6262C60 56.3437 59.7088 57.0204 59.2501 57.5763C58.97 57.9102 58.6142 58.1711 58.2129 58.337C58.2111 58.3389 58.2101 58.3414 58.2101 58.3441C58.2101 58.3467 58.2111 58.3493 58.2129 58.3512L58.9429 60.475C59.1396 61.0452 58.6345 61.7099 58.006 61.7099H57.9648C57.8123 61.7144 57.6624 61.6699 57.5367 61.5827C57.411 61.4956 57.316 61.3704 57.2656 61.2253L56.3826 58.6337C56.3814 58.6317 56.3797 58.6301 56.3776 58.629C56.3757 58.6279 56.3734 58.6273 56.371 58.6272H54.4946C54.4919 58.6273 54.4894 58.6283 54.4873 58.6299C54.4853 58.6315 54.4838 58.6337 54.483 58.6363L54.1745 60.8495C54.1369 61.0843 54.0193 61.2985 53.842 61.4553C53.6646 61.6121 53.4387 61.7017 53.2029 61.7086C53.0953 61.7117 52.9883 61.6906 52.8899 61.6467C52.7914 61.6028 52.704 61.5373 52.6339 61.4549C52.5638 61.3726 52.5128 61.2755 52.4847 61.1707C52.4567 61.0659 52.4521 60.9562 52.4715 60.8495L53.492 53.5257C53.5325 53.2777 53.6571 53.0517 53.8447 52.8862C54.0323 52.7207 54.2711 52.6261 54.5202 52.6186H57.425C57.425 52.6186 58.7 52.5785 59.421 53.203ZM67.4155 53.4181C67.3806 53.6374 67.2708 53.8375 67.1051 53.984C66.9395 54.1304 66.7283 54.214 66.5081 54.2202H63.1291C63.1265 54.2204 63.1239 54.2213 63.1219 54.223C63.1198 54.2245 63.1183 54.2268 63.1175 54.2293L62.8489 56.1522C62.8485 56.1538 62.8484 56.1554 62.8488 56.157C62.8491 56.1586 62.8498 56.1601 62.8508 56.1613C62.8518 56.1626 62.8531 56.1636 62.8545 56.1642C62.856 56.1649 62.8576 56.1652 62.8592 56.1652H65.4837C65.5842 56.1622 65.6841 56.1819 65.7761 56.2228C65.8681 56.2638 65.9499 56.3249 66.0154 56.4018C66.081 56.4786 66.1286 56.5693 66.1549 56.6672C66.1813 56.765 66.1855 56.8675 66.1675 56.9673C66.1326 57.1866 66.0228 57.3867 65.8571 57.5332C65.6915 57.6796 65.4803 57.7631 65.2601 57.7694H62.6342C62.6316 57.7695 62.6291 57.7705 62.627 57.7721C62.625 57.7737 62.6234 57.776 62.6227 57.7785L62.3 60.0927C62.3 60.096 62.3013 60.0991 62.3034 60.1014C62.3055 60.1039 62.3084 60.1054 62.3116 60.1057H65.6881C65.7886 60.1027 65.8885 60.1224 65.9805 60.1633C66.0725 60.2043 66.1542 60.2654 66.2197 60.3423C66.2853 60.4192 66.333 60.5098 66.3593 60.6077C66.3856 60.7055 66.3899 60.808 66.3718 60.9078C66.3369 61.1271 66.2272 61.3273 66.0615 61.4737C65.8958 61.6201 65.6846 61.7036 65.4645 61.7099H61.2744C61.1614 61.7115 61.0493 61.688 60.9463 61.6411C60.8433 61.5942 60.7517 61.525 60.6781 61.4385C60.6045 61.3519 60.5507 61.2501 60.5205 61.1403C60.4903 61.0304 60.4844 60.9152 60.5033 60.8028L61.5173 53.5309C61.5578 53.2829 61.6824 53.0568 61.8701 52.8914C62.0576 52.7259 62.2964 52.6313 62.5456 52.6238H66.7343C66.8338 52.6214 66.9326 52.6413 67.0236 52.6819C67.1147 52.7226 67.1956 52.7831 67.2608 52.859C67.3258 52.9349 67.3735 53.0244 67.4003 53.1211C67.427 53.2178 67.4322 53.3192 67.4155 53.4181ZM74.4343 53.4181C74.3992 53.6374 74.2895 53.8375 74.1239 53.984C73.9583 54.1304 73.7472 54.214 73.5267 54.2202H70.1481C70.1454 54.2204 70.1426 54.2213 70.141 54.223C70.1388 54.2245 70.1372 54.2268 70.1366 54.2293L69.869 56.1522C69.8684 56.1538 69.8684 56.1554 69.869 56.157C69.8695 56.1586 69.8701 56.1601 69.8712 56.1613C69.8723 56.1626 69.8734 56.1636 69.8745 56.1642C69.8761 56.1649 69.8778 56.1652 69.8794 56.1652H72.504C72.6044 56.1622 72.7042 56.1819 72.7963 56.2228C72.8884 56.2638 72.9701 56.3249 73.0354 56.4018C73.1012 56.4786 73.1489 56.5693 73.1752 56.6672C73.2015 56.765 73.2059 56.8675 73.1878 56.9673C73.1527 57.1866 73.0431 57.3867 72.8774 57.5332C72.7118 57.6796 72.5007 57.7631 72.2803 57.7694H69.6529C69.6507 57.7695 69.648 57.7705 69.6458 57.7721C69.6442 57.7737 69.6425 57.776 69.6414 57.7785L69.319 60.0927C69.319 60.096 69.3202 60.0991 69.3223 60.1014C69.3244 60.1039 69.3274 60.1054 69.3306 60.1057H72.7069C72.8073 60.1027 72.9076 60.1224 72.9992 60.1633C73.0913 60.2043 73.173 60.2654 73.2388 60.3423C73.3041 60.4192 73.3518 60.5098 73.3781 60.6077C73.4044 60.7055 73.4088 60.808 73.3907 60.9078C73.3556 61.1271 73.246 61.3273 73.0803 61.4737C72.9147 61.6201 72.7036 61.7036 72.4832 61.7099H68.2933C68.1803 61.7115 68.0683 61.688 67.9652 61.6411C67.8622 61.5942 67.7706 61.525 67.697 61.4385C67.6235 61.3519 67.5697 61.2501 67.5394 61.1403C67.5092 61.0304 67.5033 60.9152 67.5222 60.8028L68.5362 53.5309C68.5767 53.2829 68.7014 53.0568 68.889 52.8914C69.0765 52.7259 69.3153 52.6313 69.5646 52.6238H73.7532C73.8525 52.6214 73.9517 52.6413 74.0428 52.6819C74.1338 52.7226 74.2144 52.7831 74.2797 52.859C74.3449 52.9349 74.3926 53.0244 74.419 53.1211C74.4458 53.2178 74.4513 53.3192 74.4343 53.4181ZM79.3182 52.5876C80.466 52.5876 81.9522 52.6031 83.4432 52.6277C85.2502 52.6575 86.8312 53.4946 87.7793 54.9225C88.7927 56.4623 89.7036 58.0684 90.5054 59.7299C90.9298 60.6007 90.1494 61.7345 89.1278 61.7345H78.1705L79.3182 52.5876Z" fill="#6DF4F9"/>
<path d="M56.7376 57.0243H54.7068L55.0924 54.2203H57.1219C57.1219 54.2203 58.6115 54.123 58.3673 55.6223C58.3737 55.6223 58.2028 57.0243 56.7376 57.0243Z" fill="#01DAE3"/>
<path d="M75.7939 49.8079H44.0658V62.8398H75.7939V49.8079Z" fill="#6DF4F9"/>
<path fill-rule="evenodd" clip-rule="evenodd" d="M75.4138 52.7697L67.1836 57.3121L71.1353 56.1084L70.4081 57.1217L66.3416 58.3089L70.1811 53.3133L64.1688 56.2057L62.4573 57.0291L63.9845 56.8618L65.9022 56.6519L62.7382 61.0628L70.1328 57.5051L67.9711 60.5192L76.9685 56.1906L71.5746 57.7654L75.4138 52.7697ZM61.8751 57.4572L61.7553 57.8836C61.6278 58.3378 61.3198 58.5649 60.8315 58.5649C60.3358 58.5649 60.1517 58.3378 60.2792 57.8836L61.2646 54.3743H59.3223L58.3687 57.7701C58.1794 58.4445 58.1964 58.9503 58.42 59.2874C58.6434 59.6246 59.0289 59.7932 59.5765 59.7932C60.0278 59.7932 60.4083 59.69 60.7178 59.4835C61.0274 59.2771 61.2765 59.0225 61.465 58.7197H61.5205L61.2336 59.7416H63.1759L63.8789 57.2378L61.8751 57.4572ZM62.053 56.8236L64.2986 55.7432L64.683 54.3743H62.7408L62.053 56.8236ZM53.4939 54.3743H55.4362L55.1493 55.3962H55.2048C55.3934 55.0934 55.6425 54.8388 55.952 54.6324C56.2616 54.4259 56.642 54.3227 57.0934 54.3227C57.6409 54.3227 58.0264 54.4913 58.2499 54.8285C58.4734 55.1656 58.4904 55.6714 58.3011 56.3457L57.3475 59.7416H55.4053L56.3907 56.2322C56.5182 55.7781 56.3341 55.551 55.8383 55.551C55.35 55.551 55.0421 55.7781 54.9145 56.2322L53.9291 59.7416H51.9868L53.4939 54.3743ZM46.4157 59.7416L46.9189 57.9869C46.9234 57.9869 46.9396 57.987 46.9663 57.9871C47.3811 57.9887 50.301 58 50.3191 57.9353C50.3385 57.8665 50.3112 57.832 50.2371 57.832L48.4208 57.7391C47.918 57.7117 47.5701 57.5672 47.3772 57.3056C47.1935 57.0373 47.1742 56.6451 47.3191 56.129C47.4795 55.5578 47.7603 55.1243 48.1616 54.8285C48.5647 54.5257 49.0771 54.3743 49.6986 54.3743H52.9284L52.3404 56.129C52.3359 56.129 52.3199 56.1289 52.2938 56.1288H52.2932C51.8847 56.1272 49.0431 56.116 49.0249 56.1806C49.0192 56.2012 49.0198 56.2253 49.0269 56.2529C49.0433 56.2735 49.07 56.2838 49.107 56.2838L50.9233 56.3767C51.4261 56.4043 51.7693 56.5522 51.9529 56.8205C52.1459 57.082 52.1699 57.4708 52.025 57.9869C51.8646 58.558 51.5828 58.995 51.1797 59.2978C50.7784 59.5936 50.267 59.7416 49.6455 59.7416H46.4157Z" fill="#101010"/>
<path d="M15.3226 41.6008C15.7769 41.6008 16.1452 41.2326 16.1452 40.7783C16.1452 40.324 15.7769 39.9557 15.3226 39.9557C14.8683 39.9557 14.5 40.324 14.5 40.7783C14.5 41.2326 14.8683 41.6008 15.3226 41.6008Z" fill="white"/>
</g>
<defs>
<clipPath id="clip0_4_128">
<rect width="90.4839" height="51" fill="white" transform="translate(14.5 39.9557)"/>
</clipPath>
</defs>
</svg>
