<svg width="122" height="122" viewBox="0 0 122 122" fill="none" xmlns="http://www.w3.org/2000/svg">
<circle cx="61" cy="61.4557" r="59.5" stroke="#3AF0F7" stroke-width="2"/>
<g clip-path="url(#clip0_4_126)">
<path d="M61.2656 36.9684C46.6221 36.9684 34.25 42.7247 34.25 49.539C34.25 56.3534 46.6221 62.1097 61.2656 62.1097C75.9092 62.1097 88.2812 56.3534 88.2812 49.539C88.2812 42.7247 75.9092 36.9684 61.2656 36.9684Z" fill="#6DF4F9"/>
<path d="M61.2656 64.2048C48.8582 64.2048 38.5019 60.4766 34.25 55.0743V57.9195C34.25 59.825 35.1872 61.6676 37.0347 63.3951C41.699 67.7718 50.983 70.4902 61.2656 70.4902C71.5482 70.4902 80.8321 67.7718 85.4952 63.3961C87.3438 61.6676 88.2812 59.825 88.2812 57.9195V55.0743C84.0293 60.4766 73.6731 64.2048 61.2656 64.2048Z" fill="#F0F1F1"/>
<path d="M36.3281 65.5426V73.1091C36.3281 79.7611 47.4876 85.156 61.2656 85.156C75.0332 85.156 86.2028 79.7611 86.2028 73.1091V65.5426C80.9966 69.9015 71.5752 72.5853 61.2656 72.5853C50.9571 72.5853 41.5359 69.9015 36.3281 65.5426Z" fill="#6DF4F9"/>
<path fill-rule="evenodd" clip-rule="evenodd" d="M74.1228 40.0168L68.3795 46.7364L71.8973 44.1423L71.8665 45.1318L68.2062 47.7681L68.6466 42.7725L64.1198 47.4058L62.8312 48.7247L64.4227 47.9149L66.4212 46.898L66.2871 51.2049L71.8549 45.5062L71.7632 48.4492L78.5378 41.5154L73.6824 45.0123L74.1228 40.0168ZM62.508 49.2692L62.7049 49.6C62.9146 49.9524 62.7441 50.2408 62.1936 50.4651C61.6347 50.6929 61.2504 50.6306 61.0408 50.2782L59.4206 47.5553L57.2309 48.4477L58.7987 51.0824C59.1101 51.6056 59.5229 51.925 60.0373 52.0405C60.5516 52.1559 61.1174 52.0878 61.7347 51.8363C62.2435 51.6289 62.5921 51.3874 62.7803 51.1116C62.9686 50.8358 63.0513 50.5567 63.0283 50.2742L63.0909 50.2487L63.5627 51.0416L65.7523 50.1492L64.5963 48.2066L62.508 49.2692ZM62.2154 48.7775L63.9062 47.0469L63.2743 45.9848L61.0847 46.8771L62.2154 48.7775ZM50.6604 51.1254L52.85 50.2331L53.3218 51.0259L53.3844 51.0004C53.3614 50.7179 53.444 50.4387 53.6323 50.163C53.8206 49.8873 54.1692 49.6457 54.678 49.4383C55.2952 49.1868 55.8611 49.1187 56.3755 49.2342C56.8898 49.3496 57.3026 49.6689 57.614 50.1921L59.1818 52.8269L56.9922 53.7192L55.372 50.9963C55.1622 50.644 54.7779 50.5817 54.2191 50.8094C53.6686 51.0338 53.4981 51.3222 53.7078 51.6745L55.3281 54.3974L53.1384 55.2898L50.6604 51.1254ZM46.858 57.8493L46.0596 56.4831C46.0647 56.481 46.0831 56.4735 46.1133 56.4613C46.5822 56.2718 49.8826 54.9376 49.8527 54.8875C49.821 54.8341 49.7634 54.8244 49.68 54.8584L47.5601 55.6327C46.9718 55.8459 46.4672 55.9123 46.0461 55.8318C45.6303 55.7425 45.3033 55.4978 45.065 55.0973C44.8013 54.6542 44.7805 54.2448 45.0026 53.869C45.2214 53.4879 45.6812 53.1546 46.3819 52.869L50.0229 51.3852L50.7256 52.7904C50.7206 52.7925 50.7025 52.7998 50.673 52.8117L50.6723 52.812C50.2104 52.9986 46.9983 54.2968 47.0282 54.347C47.0377 54.363 47.0572 54.3783 47.0866 54.3929C47.1211 54.3986 47.1593 54.3931 47.201 54.3761L49.3209 53.6017C49.9091 53.3885 50.4112 53.3265 50.827 53.4158C51.248 53.4963 51.5777 53.7367 51.816 54.1371C52.0796 54.5803 52.102 54.9924 51.8831 55.3735C51.661 55.7492 51.1997 56.0799 50.499 56.3654L46.858 57.8493Z" fill="#101010"/>
<path d="M19.375 40.4557C19.8582 40.4557 20.25 40.0639 20.25 39.5807C20.25 39.0974 19.8582 38.7057 19.375 38.7057C18.8918 38.7057 18.5 39.0974 18.5 39.5807C18.5 40.0639 18.8918 40.4557 19.375 40.4557Z" fill="white"/>
</g>
<defs>
<clipPath id="clip0_4_126">
<rect width="91" height="50.1667" fill="white" transform="translate(18.5 36.9557)"/>
</clipPath>
</defs>
</svg>
