<svg width="119" height="32" viewBox="0 0 119 32" fill="none" xmlns="http://www.w3.org/2000/svg">
<path fill-rule="evenodd" clip-rule="evenodd" d="M112.945 0L80.8887 17.4221L96.2794 12.8051L93.4483 16.6917L77.6096 21.2452L92.5635 2.08473L69.1465 13.1784L62.4805 16.3364L68.4288 15.695L75.898 14.8898L63.5746 31.8073L92.377 18.1624L83.9561 29.7226L119.001 13.1203L97.9915 19.1605L112.945 0ZM60.2127 17.9786L59.7462 19.6142C59.2495 21.3561 58.0502 22.227 56.1481 22.227C54.2172 22.227 53.5001 21.3561 53.9968 19.6142L57.835 6.15425H50.2699L46.5559 19.1787C45.8184 21.7651 45.8848 23.7049 46.7553 24.9981C47.6258 26.2913 49.1273 26.938 51.2599 26.938C53.0179 26.938 54.4998 26.5421 55.7053 25.7503C56.911 24.9585 57.8811 23.982 58.6158 22.8208H58.8318L57.7143 26.74H65.2793L68.0177 17.1371L60.2127 17.9786ZM60.9056 15.5482L69.6523 11.4045L71.1494 6.15425H63.5844L60.9056 15.5482ZM27.569 6.15425H35.134L34.0165 10.0734H34.2326C34.9672 8.9122 35.9373 7.9357 37.143 7.14395C38.3486 6.35218 39.8304 5.9563 41.5884 5.9563C43.721 5.9563 45.2225 6.60291 46.093 7.89611C46.9635 9.18933 47.0299 11.1292 46.2925 13.7156L42.5784 26.74H35.0134L38.8516 13.2801C39.3483 11.5382 38.6311 10.6673 36.7003 10.6673C34.7982 10.6673 33.5988 11.5382 33.1021 13.2801L29.264 26.74H21.6989L27.569 6.15425ZM0 26.74L1.95975 20.0101C1.97718 20.0101 2.04071 20.0103 2.1447 20.0106H2.1449C3.76051 20.0168 15.1329 20.0601 15.2036 19.8121C15.2788 19.5481 15.1724 19.4162 14.8841 19.4162L7.80976 19.0599C5.85134 18.9544 4.49636 18.4002 3.74485 17.3972C3.02968 16.3679 2.95431 14.8636 3.51874 12.8842C4.14338 10.6937 5.23712 9.03097 6.79996 7.89611C8.37032 6.73487 10.3659 6.15425 12.7867 6.15425H25.3663L23.0761 12.8842C23.0586 12.8842 22.9963 12.884 22.8946 12.8836H22.8923H22.8914C21.3001 12.8773 10.2334 12.8343 10.1628 13.0821C10.1402 13.1613 10.1427 13.2537 10.1702 13.3593C10.2341 13.4384 10.3381 13.478 10.4822 13.478L17.5566 13.8343C19.515 13.9399 20.8518 14.5073 21.567 15.5366C22.3185 16.5395 22.412 18.0306 21.8476 20.0101C21.2229 22.2006 20.1255 23.8765 18.5551 25.0377C16.9922 26.1726 15.0004 26.74 12.5796 26.74H0Z" fill="#02000C"/>
</svg>
